<svg xmlns="http://www.w3.org/2000/svg" xmlns:xlink="http://www.w3.org/1999/xlink" xmlns:svgjs="http://svgjs.com/svgjs" version="1.1" width="512" height="512" x="0" y="0" viewBox="0 0 512.003 512.003" style="enable-background:new 0 0 512 512" xml:space="preserve" class=""><g>
<g xmlns="http://www.w3.org/2000/svg">
	<g>
		<path d="M509.443,407.14l-17.623-41.416c-15.368-36.719-35.66-68.476-60.45-94.641c32.574-26.069,65.262-71.487,65.262-148.738    V92.36c0-17.609-14.326-31.935-31.935-31.935h-59.97c-17.609,0-31.935,14.326-31.935,31.935v29.985    c0,22.29-4.135,36.775-13.408,46.965c-6.484,7.127-16.096,12.772-28.687,16.867V75.543c0-8.349-6.769-15.118-15.118-15.118    H203.289c-22.481,0-40.77,18.289-40.77,40.77c0,18.962,12.883,35.272,31.33,39.663l4.913,1.169    c4.766,1.134,8.094,5.348,8.094,10.247v155.328c-13.441-9.207-25.993-21.41-37.021-36.088    c-29.661-39.48-45.996-92.456-45.996-149.171V92.36c0-17.609-14.326-31.935-31.935-31.935h-59.97C14.325,60.425,0,74.751,0,92.36    v29.985c0,85.047,26.115,165.634,73.538,226.914c51.061,65.982,120.398,102.32,195.239,102.32h29.985    c17.609,0,31.935-14.326,31.935-31.935v-73.561c19.377,16.685,35.109,39.308,46.891,67.473l7.703,18.413    c4.983,11.912,16.547,19.609,29.46,19.609h65.304c10.751,0,20.709-5.353,26.641-14.321    C512.626,428.29,513.653,417.031,509.443,407.14z M481.471,420.58c-0.503,0.762-1.166,0.762-1.416,0.762h-65.304    c-0.686,0-1.301-0.409-1.566-1.042l-7.703-18.413c-16.766-40.079-40.861-70.796-71.611-91.298    c-3.487-2.325-7.07-4.503-10.954-6.66c-2.285-1.269-4.813-1.902-7.339-1.902c-2.653,0-5.304,0.698-7.668,2.088    c-4.616,2.717-7.45,7.674-7.45,13.03v102.498c0,0.936-0.762,1.698-1.698,1.698h-29.985c-65.276,0-126.12-32.171-171.326-90.587    c-43.343-56.011-67.213-130.026-67.213-208.41V92.36c0-0.936,0.762-1.698,1.698-1.698h59.969c0.936,0,1.698,0.762,1.698,1.698    v29.985c0,63.223,18.488,122.649,52.056,167.332c19.804,26.358,44.145,46.197,70.392,57.369    c4.669,1.988,10.024,1.499,14.259-1.299c4.234-2.8,6.781-7.537,6.781-12.612v-180.86c0-18.963-12.883-35.274-31.33-39.664    l-4.912-1.168c-4.766-1.135-8.095-5.35-8.095-10.248c0-5.808,4.725-10.534,10.534-10.534h97.171v114.795    c0,4.484,1.991,8.737,5.434,11.609c3.443,2.872,7.984,4.072,12.394,3.265c28.277-5.15,49.63-15.47,63.461-30.672    c14.716-16.174,21.28-36.933,21.28-67.314V92.359c0-0.936,0.762-1.698,1.698-1.698h59.97c0.936,0,1.698,0.762,1.698,1.698v29.985    c0,75.718-36.186,114.757-66.544,134.175c-3.95,2.526-6.504,6.742-6.914,11.413c-0.41,4.672,1.371,9.268,4.82,12.444    c27.609,25.42,49.876,58.074,66.184,97.054c0.012,0.028,0.024,0.056,0.036,0.085l17.643,41.464    C481.715,419.209,481.975,419.819,481.471,420.58z" fill="#000000" data-original="#000000" class=""/>
	</g>
</g>
<g xmlns="http://www.w3.org/2000/svg">
</g>
<g xmlns="http://www.w3.org/2000/svg">
</g>
<g xmlns="http://www.w3.org/2000/svg">
</g>
<g xmlns="http://www.w3.org/2000/svg">
</g>
<g xmlns="http://www.w3.org/2000/svg">
</g>
<g xmlns="http://www.w3.org/2000/svg">
</g>
<g xmlns="http://www.w3.org/2000/svg">
</g>
<g xmlns="http://www.w3.org/2000/svg">
</g>
<g xmlns="http://www.w3.org/2000/svg">
</g>
<g xmlns="http://www.w3.org/2000/svg">
</g>
<g xmlns="http://www.w3.org/2000/svg">
</g>
<g xmlns="http://www.w3.org/2000/svg">
</g>
<g xmlns="http://www.w3.org/2000/svg">
</g>
<g xmlns="http://www.w3.org/2000/svg">
</g>
<g xmlns="http://www.w3.org/2000/svg">
</g>
</g></svg>